<?xml version="1.0" standalone="no"?><svg xmlns:xlink="http://www.w3.org/1999/xlink" xmlns="http://www.w3.org/2000/svg" viewBox="0 0 1000 916.6669571188078" preserveAspectRatio="xMaxYMax slice"><g transform="scale(1.16180856415565)"><rect x="0" y="0" width="860.7272727272727" height="789.0000000000001" fill="#ffffff"/><rect x="0" y="0" width="71.73" height="71.73" fill="#acf3c7"/><path d="M 0 71.73 A 71.73 71.73 0 0 0 71.73 0 L 0 0" fill="#9ff1bf"/><rect x="71.73" y="0" width="71.73" height="71.73" fill="#8eefb3"/><polygon points="143.46,0 143.46,71.73 71.73,71.73" fill="#9ef1be"/><rect x="143.45" y="0" width="71.73" height="71.73" fill="#ebfcf1"/><path d="M 143.45 71.73 A 71.73 71.73 0 0 1  215.18 0 L 215.18 71.73" fill="#f8fefa"/><rect x="215.18" y="0" width="71.73" height="71.73" fill="#e6ecfd"/><polygon points="215.18,0 286.91,71.73 215.18,71.73" fill="#e7ecfd"/><rect x="286.91" y="0" width="71.73" height="71.73" fill="#cbf7dc"/><rect x="286.91" y="0" width="71.73" height="71.73" fill="#6989f2"/><rect x="358.64" y="0" width="71.73" height="71.73" fill="#90efb4"/><polygon points="430.37,0 430.37,71.73 358.64,71.73" fill="#f3f6fe"/><rect x="430.36" y="0" width="71.73" height="71.73" fill="#7eeca8"/><rect x="430.36" y="0" width="71.73" height="71.73" fill="#cfd9fb"/><rect x="502.09" y="0" width="71.73" height="71.73" fill="#f6f8fe"/><polygon points="573.8199999999999,0 573.8199999999999,71.73 502.09,71.73" fill="#98aef6"/><rect x="573.82" y="0" width="71.73" height="71.73" fill="#c1f6d6"/><path d="M 573.82 0 A 71.73 71.73 0 0 1 645.5500000000001 71.73 L 573.82 71.73" fill="#9fb4f6"/><rect x="645.55" y="0" width="71.73" height="71.73" fill="#fefeff"/><path d="M 645.55 71.73 A 71.73 71.73 0 0 0 717.28 0 L 645.55 0" fill="#f7f9fe"/><rect x="717.27" y="0" width="71.73" height="71.73" fill="#e1fbeb"/><path d="M 717.27 71.73 A 71.73 71.73 0 0 1  789 0 L 717.27 71.73 A 71.73 71.73 0 0 0 789 0" fill="#84edac"/><rect x="789" y="0" width="71.73" height="71.73" fill="#7794f3"/><rect x="789" y="0" width="71.73" height="71.73" fill="#c4f7d8"/><rect x="0" y="71.73" width="71.73" height="71.73" fill="#e7fbef"/><rect x="0" y="71.73" width="71.73" height="71.73" fill="#a0b4f6"/><rect x="71.73" y="71.73" width="71.73" height="71.73" fill="#9ff1be"/><path d="M 71.73 143.46 A 71.73 71.73 0 0 1  143.46 71.73 L 71.73 143.46 A 71.73 71.73 0 0 0 143.46 71.73" fill="#9eb3f6"/><rect x="143.45" y="71.73" width="71.73" height="71.73" fill="#4970ef"/><rect x="143.45" y="71.73" width="71.73" height="71.73" fill="#b5f4cd"/><rect x="215.18" y="71.73" width="71.73" height="71.73" fill="#b6c5f8"/><path d="M 215.18 71.73 A 71.73 71.73 0 0 1  286.91 143.46 L 215.18 71.73 A 71.73 71.73 0 0 0 286.91 143.46" fill="#adf3c8"/><rect x="286.91" y="71.73" width="71.73" height="71.73" fill="#829df4"/><polygon points="286.91,71.73 358.64000000000004,71.73 286.91,143.46" fill="#dce3fc"/><rect x="358.64" y="71.73" width="71.73" height="71.73" fill="#cad6fa"/><path d="M 358.64 143.46 A 71.73 71.73 0 0 1  430.37 71.73 L 430.37 143.46" fill="#6e8df2"/><rect x="430.36" y="71.73" width="71.73" height="71.73" fill="#95acf6"/><path d="M 430.36 143.46 A 71.73 71.73 0 0 1  502.09000000000003 71.73 L 430.36 143.46 A 71.73 71.73 0 0 0 502.09000000000003 71.73" fill="#c9f7db"/><rect x="502.09" y="71.73" width="71.73" height="71.73" fill="#ebfcf2"/><polygon points="573.8199999999999,71.73 573.8199999999999,143.46 502.09,143.46" fill="#c1f6d6"/><rect x="573.82" y="71.73" width="71.73" height="71.73" fill="#86eeae"/><polygon points="573.82,71.73 645.5500000000001,71.73 645.5500000000001,143.46" fill="#456dee"/><rect x="645.55" y="71.73" width="71.73" height="71.73" fill="#b7c6f9"/><path d="M 645.55 143.46 A 71.73 71.73 0 0 1  717.28 71.73 L 717.28 143.46" fill="#89a2f4"/><rect x="717.27" y="71.73" width="71.73" height="71.73" fill="#aaf3c6"/><polygon points="717.27,71.73 789,143.46 717.27,143.46" fill="#ecfcf2"/><rect x="789" y="71.73" width="71.73" height="71.73" fill="#dafae6"/><rect x="789" y="71.73" width="71.73" height="71.73" fill="#b0c1f8"/><rect x="0" y="143.45" width="71.73" height="71.73" fill="#446cee"/><path d="M 0 143.45 A 71.73 71.73 0 0 0 71.73 215.18 L 71.73 143.45" fill="#aef3c9"/><rect x="71.73" y="143.45" width="71.73" height="71.73" fill="#eff2fe"/><rect x="71.73" y="143.45" width="71.73" height="71.73" fill="#9bb0f6"/><rect x="143.45" y="143.45" width="71.73" height="71.73" fill="#d2dcfb"/><polygon points="215.18,143.45 215.18,215.18 143.45,215.18" fill="#e1fbeb"/><rect x="215.18" y="143.45" width="71.73" height="71.73" fill="#9fb3f6"/><polygon points="215.18,143.45 286.91,143.45 215.18,215.18" fill="#acf3c7"/><rect x="286.91" y="143.45" width="71.73" height="71.73" fill="#bdf5d2"/><rect x="286.91" y="143.45" width="71.73" height="71.73" fill="#87a0f4"/><rect x="358.64" y="143.45" width="71.73" height="71.73" fill="#ebeffd"/><path d="M 358.64 215.18 A 71.73 71.73 0 0 1  430.37 143.45 L 430.37 215.18" fill="#dae2fc"/><rect x="430.36" y="143.45" width="71.73" height="71.73" fill="#91efb5"/><polygon points="430.36,143.45 502.09000000000003,143.45 430.36,215.18" fill="#bbf5d1"/><rect x="502.09" y="143.45" width="71.73" height="71.73" fill="#88a2f4"/><path d="M 502.09 215.18 A 71.73 71.73 0 0 0 573.8199999999999 143.45 L 502.09 143.45" fill="#d4ddfb"/><rect x="573.82" y="143.45" width="71.73" height="71.73" fill="#b7f5cf"/><path d="M 573.82 143.45 A 71.73 71.73 0 0 1  645.5500000000001 215.18 L 573.82 143.45 A 71.73 71.73 0 0 0 645.5500000000001 215.18" fill="#99aff6"/><rect x="645.55" y="143.45" width="71.73" height="71.73" fill="#dffae9"/><rect x="645.55" y="143.45" width="71.73" height="71.73" fill="#fefeff"/><rect x="717.27" y="143.45" width="71.73" height="71.73" fill="#a0b4f6"/><path d="M 717.27 215.18 A 71.73 71.73 0 0 1  789 143.45 L 717.27 215.18 A 71.73 71.73 0 0 0 789 143.45" fill="#b5c5f8"/><rect x="789" y="143.45" width="71.73" height="71.73" fill="#6d8cf2"/><rect x="789" y="143.45" width="71.73" height="71.73" fill="#d4ddfb"/><rect x="0" y="215.18" width="71.73" height="71.73" fill="#9bf1bc"/><rect x="0" y="215.18" width="71.73" height="71.73" fill="#9ff1bf"/><rect x="71.73" y="215.18" width="71.73" height="71.73" fill="#3762ed"/><rect x="71.73" y="215.18" width="71.73" height="71.73" fill="#c9d4fa"/><rect x="143.45" y="215.18" width="71.73" height="71.73" fill="#fefffe"/><path d="M 143.45 215.18 A 71.73 71.73 0 0 1 215.18 286.91 L 143.45 286.91" fill="#c8d4fa"/><rect x="215.18" y="215.18" width="71.73" height="71.73" fill="#426aee"/><rect x="215.18" y="215.18" width="71.73" height="71.73" fill="#83edac"/><rect x="286.91" y="215.18" width="71.73" height="71.73" fill="#c0f6d4"/><path d="M 286.91 286.91 A 71.73 71.73 0 0 0 358.64000000000004 215.18 L 286.91 215.18" fill="#caf7dc"/><rect x="358.64" y="215.18" width="71.73" height="71.73" fill="#f3f5fe"/><rect x="358.64" y="215.18" width="71.73" height="71.73" fill="#aabcf7"/><rect x="430.36" y="215.18" width="71.73" height="71.73" fill="#8aa3f5"/><rect x="430.36" y="215.18" width="71.73" height="71.73" fill="#f5fef8"/><rect x="502.09" y="215.18" width="71.73" height="71.73" fill="#7b97f3"/><rect x="502.09" y="215.18" width="71.73" height="71.73" fill="#a4b7f7"/><rect x="573.82" y="215.18" width="71.73" height="71.73" fill="#4d73ef"/><polygon points="645.5500000000001,215.18 645.5500000000001,286.91 573.82,286.91" fill="#456dee"/><rect x="645.55" y="215.18" width="71.73" height="71.73" fill="#597cf0"/><rect x="645.55" y="215.18" width="71.73" height="71.73" fill="#4f74ef"/><rect x="717.27" y="215.18" width="71.73" height="71.73" fill="#a8f2c5"/><rect x="717.27" y="215.18" width="71.73" height="71.73" fill="#9ff1be"/><rect x="789" y="215.18" width="71.73" height="71.73" fill="#effdf4"/><polygon points="860.73,215.18 860.73,286.91 789,286.91" fill="#feffff"/><rect x="0" y="286.91" width="71.73" height="71.73" fill="#5f81f1"/><path d="M 0 358.64000000000004 A 71.73 71.73 0 0 0 71.73 286.91 L 0 286.91" fill="#6f8ef2"/><rect x="71.73" y="286.91" width="71.73" height="71.73" fill="#a8baf7"/><path d="M 71.73 286.91 A 71.73 71.73 0 0 1  143.46 358.64000000000004 L 71.73 286.91 A 71.73 71.73 0 0 0 143.46 358.64000000000004" fill="#a2b6f7"/><rect x="143.45" y="286.91" width="71.73" height="71.73" fill="#f9fafe"/><rect x="143.45" y="286.91" width="71.73" height="71.73" fill="#9cf1bd"/><rect x="215.18" y="286.91" width="71.73" height="71.73" fill="#9cf1bd"/><rect x="215.18" y="286.91" width="71.73" height="71.73" fill="#eafcf1"/><rect x="286.91" y="286.91" width="71.73" height="71.73" fill="#718ff2"/><polygon points="286.91,286.91 358.64000000000004,286.91 358.64000000000004,358.64000000000004" fill="#4b71ef"/><rect x="358.64" y="286.91" width="71.73" height="71.73" fill="#cbd6fa"/><path d="M 358.64 358.64000000000004 A 71.73 71.73 0 0 1  430.37 286.91 L 358.64 358.64000000000004 A 71.73 71.73 0 0 0 430.37 286.91" fill="#e6fbee"/><rect x="430.36" y="286.91" width="71.73" height="71.73" fill="#e2e8fc"/><rect x="430.36" y="286.91" width="71.73" height="71.73" fill="#a7baf7"/><rect x="502.09" y="286.91" width="71.73" height="71.73" fill="#a9f3c5"/><path d="M 502.09 286.91 A 71.73 71.73 0 0 1 573.8199999999999 358.64000000000004 L 502.09 358.64000000000004" fill="#6586f1"/><rect x="573.82" y="286.91" width="71.73" height="71.73" fill="#9af0bb"/><polygon points="573.82,286.91 645.5500000000001,358.64000000000004 573.82,358.64000000000004" fill="#feffff"/><rect x="645.55" y="286.91" width="71.73" height="71.73" fill="#defae9"/><path d="M 645.55 358.64000000000004 A 71.73 71.73 0 0 1  717.28 286.91 L 717.28 358.64000000000004" fill="#8da6f5"/><rect x="717.27" y="286.91" width="71.73" height="71.73" fill="#a5f2c3"/><path d="M 717.27 286.91 A 71.73 71.73 0 0 0 789 358.64000000000004 L 789 286.91" fill="#cbd6fa"/><rect x="789" y="286.91" width="71.73" height="71.73" fill="#92efb6"/><rect x="789" y="286.91" width="71.73" height="71.73" fill="#b2f4cb"/><rect x="0" y="358.64" width="71.73" height="71.73" fill="#bef6d3"/><polygon points="0,358.64 71.73,358.64 0,430.37" fill="#c7f7d9"/><rect x="71.73" y="358.64" width="71.73" height="71.73" fill="#edf1fd"/><polygon points="71.73,358.64 143.46,358.64 71.73,430.37" fill="#7c98f3"/><rect x="143.45" y="358.64" width="71.73" height="71.73" fill="#8ca4f5"/><rect x="143.45" y="358.64" width="71.73" height="71.73" fill="#577bf0"/><rect x="215.18" y="358.64" width="71.73" height="71.73" fill="#b2c3f8"/><path d="M 215.18 430.37 A 71.73 71.73 0 0 0 286.91 358.64 L 215.18 358.64" fill="#f4fdf7"/><rect x="286.91" y="358.64" width="71.73" height="71.73" fill="#c1f6d5"/><polygon points="286.91,358.64 358.64000000000004,430.37 286.91,430.37" fill="#84edac"/><rect x="358.64" y="358.64" width="71.73" height="71.73" fill="#f6fef9"/><path d="M 358.64 358.64 A 71.73 71.73 0 0 0 430.37 430.37 L 430.37 358.64" fill="#bccaf9"/><rect x="430.36" y="358.64" width="71.73" height="71.73" fill="#f0fdf5"/><path d="M 430.36 358.64 A 71.73 71.73 0 0 0 502.09000000000003 430.37 L 502.09000000000003 358.64" fill="#87a1f4"/><rect x="502.09" y="358.64" width="71.73" height="71.73" fill="#7693f3"/><polygon points="573.8199999999999,358.64 573.8199999999999,430.37 502.09,430.37" fill="#3863ed"/><rect x="573.82" y="358.64" width="71.73" height="71.73" fill="#adbff8"/><path d="M 573.82 430.37 A 71.73 71.73 0 0 1  645.5500000000001 358.64 L 573.82 430.37 A 71.73 71.73 0 0 0 645.5500000000001 358.64" fill="#cbf7dc"/><rect x="645.55" y="358.64" width="71.73" height="71.73" fill="#d7f9e4"/><polygon points="717.28,358.64 717.28,430.37 645.55,430.37" fill="#a6b9f7"/><rect x="717.27" y="358.64" width="71.73" height="71.73" fill="#e8fcef"/><polygon points="789,358.64 789,430.37 717.27,430.37" fill="#6a8af2"/><rect x="789" y="358.64" width="71.73" height="71.73" fill="#d5defb"/><path d="M 789 358.64 A 71.73 71.73 0 0 1 860.73 430.37 L 789 430.37" fill="#d9e1fc"/><rect x="0" y="430.36" width="71.73" height="71.73" fill="#9cf1bc"/><polygon points="0,430.36 71.73,430.36 71.73,502.09000000000003" fill="#9df1bd"/><rect x="71.73" y="430.36" width="71.73" height="71.73" fill="#97f0b9"/><path d="M 71.73 430.36 A 71.73 71.73 0 0 1  143.46 502.09000000000003 L 71.73 430.36 A 71.73 71.73 0 0 0 143.46 502.09000000000003" fill="#859ff4"/><rect x="143.45" y="430.36" width="71.73" height="71.73" fill="#dfe6fc"/><rect x="143.45" y="430.36" width="71.73" height="71.73" fill="#99f0ba"/><rect x="215.18" y="430.36" width="71.73" height="71.73" fill="#cdf8dd"/><polygon points="215.18,430.36 286.91,430.36 215.18,502.09000000000003" fill="#7593f3"/><rect x="286.91" y="430.36" width="71.73" height="71.73" fill="#9cb1f6"/><path d="M 286.91 502.09000000000003 A 71.73 71.73 0 0 1  358.64000000000004 430.36 L 358.64000000000004 502.09000000000003" fill="#fbfcff"/><rect x="358.64" y="430.36" width="71.73" height="71.73" fill="#3d66ee"/><polygon points="430.37,430.36 430.37,502.09000000000003 358.64,502.09000000000003" fill="#e8fcef"/><rect x="430.36" y="430.36" width="71.73" height="71.73" fill="#a0f1bf"/><path d="M 430.36 502.09000000000003 A 71.73 71.73 0 0 1  502.09000000000003 430.36 L 430.36 502.09000000000003 A 71.73 71.73 0 0 0 502.09000000000003 430.36" fill="#eaeffd"/><rect x="502.09" y="430.36" width="71.73" height="71.73" fill="#bbcaf9"/><path d="M 502.09 430.36 A 71.73 71.73 0 0 0 573.8199999999999 502.09000000000003 L 573.8199999999999 430.36" fill="#3b65ed"/><rect x="573.82" y="430.36" width="71.73" height="71.73" fill="#6686f1"/><rect x="573.82" y="430.36" width="71.73" height="71.73" fill="#a2f1c0"/><rect x="645.55" y="430.36" width="71.73" height="71.73" fill="#3963ed"/><path d="M 645.55 502.09000000000003 A 71.73 71.73 0 0 1  717.28 430.36 L 645.55 502.09000000000003 A 71.73 71.73 0 0 0 717.28 430.36" fill="#c3f6d7"/><rect x="717.27" y="430.36" width="71.73" height="71.73" fill="#97f0b9"/><path d="M 717.27 430.36 A 71.73 71.73 0 0 0 789 502.09000000000003 L 789 430.36" fill="#fbfefd"/><rect x="789" y="430.36" width="71.73" height="71.73" fill="#e5eafd"/><polygon points="789,430.36 860.73,430.36 860.73,502.09000000000003" fill="#4b72ef"/><rect x="0" y="502.09" width="71.73" height="71.73" fill="#e3fbec"/><path d="M 0 502.09 A 71.73 71.73 0 0 0 71.73 573.8199999999999 L 71.73 502.09" fill="#c2f6d6"/><rect x="71.73" y="502.09" width="71.73" height="71.73" fill="#7eeca8"/><path d="M 71.73 573.8199999999999 A 71.73 71.73 0 0 0 143.46 502.09 L 71.73 502.09" fill="#98f0ba"/><rect x="143.45" y="502.09" width="71.73" height="71.73" fill="#7e9af3"/><polygon points="143.45,502.09 215.18,573.8199999999999 143.45,573.8199999999999" fill="#6e8df2"/><rect x="215.18" y="502.09" width="71.73" height="71.73" fill="#6e8df2"/><rect x="215.18" y="502.09" width="71.73" height="71.73" fill="#8fefb3"/><rect x="286.91" y="502.09" width="71.73" height="71.73" fill="#abbdf7"/><path d="M 286.91 502.09 A 71.73 71.73 0 0 0 358.64000000000004 573.8199999999999 L 358.64000000000004 502.09" fill="#a9f3c5"/><rect x="358.64" y="502.09" width="71.73" height="71.73" fill="#a8f2c4"/><rect x="358.64" y="502.09" width="71.73" height="71.73" fill="#859ff4"/><rect x="430.36" y="502.09" width="71.73" height="71.73" fill="#a7f2c4"/><rect x="430.36" y="502.09" width="71.73" height="71.73" fill="#577bf0"/><rect x="502.09" y="502.09" width="71.73" height="71.73" fill="#7190f2"/><rect x="502.09" y="502.09" width="71.73" height="71.73" fill="#6d8cf2"/><rect x="573.82" y="502.09" width="71.73" height="71.73" fill="#7190f2"/><rect x="573.82" y="502.09" width="71.73" height="71.73" fill="#82edab"/><rect x="645.55" y="502.09" width="71.73" height="71.73" fill="#f9fefb"/><path d="M 645.55 573.8199999999999 A 71.73 71.73 0 0 1  717.28 502.09 L 645.55 573.8199999999999 A 71.73 71.73 0 0 0 717.28 502.09" fill="#4b71ef"/><rect x="717.27" y="502.09" width="71.73" height="71.73" fill="#7eeca8"/><rect x="717.27" y="502.09" width="71.73" height="71.73" fill="#6989f2"/><rect x="789" y="502.09" width="71.73" height="71.73" fill="#d4ddfb"/><path d="M 789 502.09 A 71.73 71.73 0 0 1 860.73 573.8199999999999 L 789 573.8199999999999" fill="#fbfefc"/><rect x="0" y="573.82" width="71.73" height="71.73" fill="#d2f9e1"/><polygon points="0,573.82 71.73,645.5500000000001 0,645.5500000000001" fill="#abf3c6"/><rect x="71.73" y="573.82" width="71.73" height="71.73" fill="#f3f6fe"/><path d="M 71.73 645.5500000000001 A 71.73 71.73 0 0 1  143.46 573.82 L 143.46 645.5500000000001" fill="#7a96f3"/><rect x="143.45" y="573.82" width="71.73" height="71.73" fill="#dafae6"/><path d="M 143.45 573.82 A 71.73 71.73 0 0 1  215.18 645.5500000000001 L 143.45 573.82 A 71.73 71.73 0 0 0 215.18 645.5500000000001" fill="#dee5fc"/><rect x="215.18" y="573.82" width="71.73" height="71.73" fill="#8fa7f5"/><polygon points="215.18,573.82 286.91,573.82 286.91,645.5500000000001" fill="#90efb4"/><rect x="286.91" y="573.82" width="71.73" height="71.73" fill="#b4f4cd"/><path d="M 286.91 573.82 A 71.73 71.73 0 0 0 358.64000000000004 645.5500000000001 L 358.64000000000004 573.82" fill="#cdd8fb"/><rect x="358.64" y="573.82" width="71.73" height="71.73" fill="#a4f2c2"/><rect x="358.64" y="573.82" width="71.73" height="71.73" fill="#b5f4cd"/><rect x="430.36" y="573.82" width="71.73" height="71.73" fill="#7eeca9"/><rect x="430.36" y="573.82" width="71.73" height="71.73" fill="#3c66ee"/><rect x="502.09" y="573.82" width="71.73" height="71.73" fill="#a6f2c3"/><rect x="502.09" y="573.82" width="71.73" height="71.73" fill="#c6f7d9"/><rect x="573.82" y="573.82" width="71.73" height="71.73" fill="#eefdf4"/><rect x="573.82" y="573.82" width="71.73" height="71.73" fill="#436bee"/><rect x="645.55" y="573.82" width="71.73" height="71.73" fill="#7b97f3"/><rect x="645.55" y="573.82" width="71.73" height="71.73" fill="#adf3c8"/><rect x="717.27" y="573.82" width="71.73" height="71.73" fill="#d8e1fc"/><polygon points="717.27,573.82 789,645.5500000000001 717.27,645.5500000000001" fill="#dce4fc"/><rect x="789" y="573.82" width="71.73" height="71.73" fill="#e1fbeb"/><rect x="789" y="573.82" width="71.73" height="71.73" fill="#feffff"/><rect x="0" y="645.55" width="71.73" height="71.73" fill="#8beeb1"/><polygon points="0,645.55 71.73,645.55 0,717.28" fill="#8beeb1"/><rect x="71.73" y="645.55" width="71.73" height="71.73" fill="#5d7ff0"/><path d="M 71.73 645.55 A 71.73 71.73 0 0 1  143.46 717.28 L 71.73 645.55 A 71.73 71.73 0 0 0 143.46 717.28" fill="#94abf5"/><rect x="143.45" y="645.55" width="71.73" height="71.73" fill="#a3b7f7"/><rect x="143.45" y="645.55" width="71.73" height="71.73" fill="#9ef1be"/><rect x="215.18" y="645.55" width="71.73" height="71.73" fill="#e1fbeb"/><rect x="215.18" y="645.55" width="71.73" height="71.73" fill="#3963ed"/><rect x="286.91" y="645.55" width="71.73" height="71.73" fill="#acbdf8"/><path d="M 286.91 645.55 A 71.73 71.73 0 0 1 358.64000000000004 717.28 L 286.91 717.28" fill="#e9eefd"/><rect x="358.64" y="645.55" width="71.73" height="71.73" fill="#ccd7fa"/><path d="M 358.64 645.55 A 71.73 71.73 0 0 0 430.37 717.28 L 430.37 645.55" fill="#5176ef"/><rect x="430.36" y="645.55" width="71.73" height="71.73" fill="#85edad"/><rect x="430.36" y="645.55" width="71.73" height="71.73" fill="#6a8af2"/><rect x="502.09" y="645.55" width="71.73" height="71.73" fill="#a3f2c1"/><rect x="502.09" y="645.55" width="71.73" height="71.73" fill="#9cb1f6"/><rect x="573.82" y="645.55" width="71.73" height="71.73" fill="#adf3c8"/><rect x="573.82" y="645.55" width="71.73" height="71.73" fill="#a8f2c4"/><rect x="645.55" y="645.55" width="71.73" height="71.73" fill="#c2f6d6"/><rect x="645.55" y="645.55" width="71.73" height="71.73" fill="#8fa7f5"/><rect x="717.27" y="645.55" width="71.73" height="71.73" fill="#94efb7"/><rect x="717.27" y="645.55" width="71.73" height="71.73" fill="#e6fbee"/><rect x="789" y="645.55" width="71.73" height="71.73" fill="#809bf4"/><rect x="789" y="645.55" width="71.73" height="71.73" fill="#6889f2"/><rect x="0" y="717.27" width="71.73" height="71.73" fill="#feffff"/><polygon points="71.73,717.27 71.73,789 0,789" fill="#9ff1be"/><rect x="71.73" y="717.27" width="71.73" height="71.73" fill="#f8fefa"/><polygon points="71.73,717.27 143.46,789 71.73,789" fill="#83edac"/><rect x="143.45" y="717.27" width="71.73" height="71.73" fill="#8fefb4"/><polygon points="215.18,717.27 215.18,789 143.45,789" fill="#80eda9"/><rect x="215.18" y="717.27" width="71.73" height="71.73" fill="#95f0b8"/><path d="M 215.18 789 A 71.73 71.73 0 0 0 286.91 717.27 L 215.18 717.27" fill="#6f8ef2"/><rect x="286.91" y="717.27" width="71.73" height="71.73" fill="#d9e1fc"/><path d="M 286.91 717.27 A 71.73 71.73 0 0 1 358.64000000000004 789 L 286.91 789" fill="#6b8bf2"/><rect x="358.64" y="717.27" width="71.73" height="71.73" fill="#feffff"/><path d="M 358.64 717.27 A 71.73 71.73 0 0 0 430.37 789 L 430.37 717.27" fill="#cff8df"/><rect x="430.36" y="717.27" width="71.73" height="71.73" fill="#8eefb3"/><rect x="430.36" y="717.27" width="71.73" height="71.73" fill="#e4fbed"/><rect x="502.09" y="717.27" width="71.73" height="71.73" fill="#6989f2"/><rect x="502.09" y="717.27" width="71.73" height="71.73" fill="#94efb7"/><rect x="573.82" y="717.27" width="71.73" height="71.73" fill="#d3f9e1"/><polygon points="573.82,717.27 645.5500000000001,717.27 573.82,789" fill="#a5b8f7"/><rect x="645.55" y="717.27" width="71.73" height="71.73" fill="#edf1fd"/><polygon points="645.55,717.27 717.28,717.27 717.28,789" fill="#afc0f8"/><rect x="717.27" y="717.27" width="71.73" height="71.73" fill="#8beeb1"/><path d="M 717.27 717.27 A 71.73 71.73 0 0 1  789 789 L 717.27 717.27 A 71.73 71.73 0 0 0 789 789" fill="#9df1bd"/><rect x="789" y="717.27" width="71.73" height="71.73" fill="#9fb4f6"/><polygon points="789,717.27 860.73,717.27 860.73,789" fill="#94f0b7"/></g></svg>