<svg xmlns="http://www.w3.org/2000/svg" viewBox="0 0 1920 1080"><g transform="
          rotate(0 960 540) 
          translate(-0 -0)
          scale(1)
        "><rect width="1920" height="1080" fill="rgb(54, 97, 237)"></rect><g transform="translate(0, 0)"><path fill="rgb(79, 117, 239)" fill-opacity="1" d="M0,151.261L64,150.032C128,148.803,256,146.345,384,145.963C512,145.582,640,147.279,768,147.469C896,147.66,1024,146.345,1152,129.936C1280,113.526,1408,82.021,1536,79.361C1664,76.7,1792,102.883,1856,115.975L1920,129.066L1920,1080L1856,1080C1792,1080,1664,1080,1536,1080C1408,1080,1280,1080,1152,1080C1024,1080,896,1080,768,1080C640,1080,512,1080,384,1080C256,1080,128,1080,64,1080L0,1080Z"></path></g><g transform="translate(0, 154.28571428571428)"><path fill="rgb(104, 137, 242)" fill-opacity="1" d="M0,2.368L64,21.09C128,39.811,256,77.253,384,86.58C512,95.906,640,77.116,768,59.724C896,42.332,1024,26.338,1152,34.594C1280,42.85,1408,75.355,1536,81.216C1664,87.078,1792,66.294,1856,55.903L1920,45.511L1920,925.714L1856,925.714C1792,925.714,1664,925.714,1536,925.714C1408,925.714,1280,925.714,1152,925.714C1024,925.714,896,925.714,768,925.714C640,925.714,512,925.714,384,925.714C256,925.714,128,925.714,64,925.714L0,925.714Z"></path></g><g transform="translate(0, 308.57142857142856)"><path fill="rgb(129, 156, 244)" fill-opacity="1" d="M0,45.445L64,60.535C128,75.625,256,105.805,384,122.013C512,138.222,640,140.459,768,122.004C896,103.548,1024,64.398,1152,48.267C1280,32.136,1408,39.022,1536,54.117C1664,69.211,1792,92.514,1856,104.165L1920,115.816L1920,771.429L1856,771.429C1792,771.429,1664,771.429,1536,771.429C1408,771.429,1280,771.429,1152,771.429C1024,771.429,896,771.429,768,771.429C640,771.429,512,771.429,384,771.429C256,771.429,128,771.429,64,771.429L0,771.429Z"></path></g><g transform="translate(0, 462.85714285714283)"><path fill="rgb(155, 176, 246)" fill-opacity="1" d="M0,144.817L64,133.625C128,122.434,256,100.051,384,77.277C512,54.503,640,31.338,768,18.585C896,5.831,1024,3.489,1152,17.605C1280,31.722,1408,62.296,1536,71.907C1664,81.517,1792,70.163,1856,64.486L1920,58.809L1920,617.143L1856,617.143C1792,617.143,1664,617.143,1536,617.143C1408,617.143,1280,617.143,1152,617.143C1024,617.143,896,617.143,768,617.143C640,617.143,512,617.143,384,617.143C256,617.143,128,617.143,64,617.143L0,617.143Z"></path></g><g transform="translate(0, 617.1428571428571)"><path fill="rgb(180, 196, 248)" fill-opacity="1" d="M0,22.064L64,24.842C128,27.62,256,33.177,384,37.118C512,41.059,640,43.385,768,57.024C896,70.663,1024,95.615,1152,112.607C1280,129.6,1408,138.632,1536,144.051C1664,149.469,1792,151.272,1856,152.174L1920,153.076L1920,462.857L1856,462.857C1792,462.857,1664,462.857,1536,462.857C1408,462.857,1280,462.857,1152,462.857C1024,462.857,896,462.857,768,462.857C640,462.857,512,462.857,384,462.857C256,462.857,128,462.857,64,462.857L0,462.857Z"></path></g><g transform="translate(0, 771.4285714285714)"><path fill="rgb(205, 216, 251)" fill-opacity="1" d="M0,85.064L64,78.362C128,71.661,256,58.257,384,46.559C512,34.86,640,24.867,768,39.631C896,54.396,1024,93.919,1152,116.643C1280,139.367,1408,145.291,1536,148.463C1664,151.636,1792,152.056,1856,152.266L1920,152.476L1920,308.571L1856,308.571C1792,308.571,1664,308.571,1536,308.571C1408,308.571,1280,308.571,1152,308.571C1024,308.571,896,308.571,768,308.571C640,308.571,512,308.571,384,308.571C256,308.571,128,308.571,64,308.571L0,308.571Z"></path></g><g transform="translate(0, 925.7142857142857)"><path fill="rgb(230, 235, 253)" fill-opacity="1" d="M0,98.46L64,96.219C128,93.978,256,89.496,384,80.339C512,71.182,640,57.35,768,68.276C896,79.201,1024,114.885,1152,129.766C1280,144.647,1408,138.725,1536,137.041C1664,135.358,1792,137.913,1856,139.19L1920,140.468L1920,154.286L1856,154.286C1792,154.286,1664,154.286,1536,154.286C1408,154.286,1280,154.286,1152,154.286C1024,154.286,896,154.286,768,154.286C640,154.286,512,154.286,384,154.286C256,154.286,128,154.286,64,154.286L0,154.286Z"></path></g></g></svg>